<svg xmlns="http://www.w3.org/2000/svg" viewBox="0 0 500 500"><g id="freepik--graduation-hat-1--inject-3"><g id="freepik--graduation-hat--inject-3"><path d="M79.32,100.58l-.35,0a2,2,0,0,0-1.77,1.81c-.84,10.89-1,30.55-.91,31.53-3.33-11-3.1-25.07-2.71-30a2.11,2.11,0,0,0-2-2.45h0a2.26,2.26,0,0,0-2.18,2.24c-.42,5.21-1,21.72,4.31,37.29-8.07-17-7.5-33.79-7.39-40.09a2,2,0,0,0-2.17-2H64.1a2,2,0,0,0-1.76,1.89c-.23,6.34-.2,19.2,4,31.2-5.5-8.87-7.49-21.89-8.11-27.31A1.89,1.89,0,0,0,56.09,103c-1.63.36-1.61,1.54-1.65,3.19a1.64,1.64,0,0,0-1.76-1.1A2,2,0,0,0,51,107a60.86,60.86,0,0,0,7.54,29.46c9.23,17.17,21.35,30.26,25.83,28,4.9-2.47-1.49-9.59-3-30.18a203.62,203.62,0,0,1,.13-31.58A2,2,0,0,0,79.32,100.58ZM55,110.1c1.53,14.44,9.23,27.63,13.91,35.4C62.61,137.11,56,128,55,110.1Z" style="fill:#BA68C8"></path><path d="M253.63,198.38a71,71,0,0,0-14.33-17,91.08,91.08,0,0,0-16.48-11.78,79,79,0,0,0-38.34-10.09,67.83,67.83,0,0,0-19.91,3,95.24,95.24,0,0,0-17.34,7.85c-5.08,2.8-10.1,5.75-15.39,8.14-1.37.63-1.9.85-3.11,1.31-1.43.55-2.87,1-4.33,1.45a34.35,34.35,0,0,1-7.6,1.36,30.09,30.09,0,0,1-16.85-4,35.38,35.38,0,0,1-7.86-6,32.43,32.43,0,0,1-3.52-4c-.4-.57-.8-1.14-1.23-1.69a7.84,7.84,0,0,0-1.3-1.34,4.85,4.85,0,0,1-1.75-2.28c-.57-1.06-2.47-1-2.16.45s.11,3,.52,4.41A13.39,13.39,0,0,0,84,171a38.93,38.93,0,0,0,2.71,4.23A32.83,32.83,0,0,0,93.81,182a35.67,35.67,0,0,0,15.89,6.42c12.13,1.63,23.35-3.27,33.77-8.95,5.13-2.79,10.18-5.73,15.46-8.25a61,61,0,0,1,17.85-5.41,70.33,70.33,0,0,1,38.64,6A92.46,92.46,0,0,1,234,183.1c6.51,5.09,12.37,11,18.23,16.8C253.28,200.92,254.19,199.33,253.63,198.38Z" style="fill:#BA68C8"></path><path d="M89.84,165.87A6.75,6.75,0,1,1,85,157.63,6.75,6.75,0,0,1,89.84,165.87Z" style="fill:#BA68C8"></path><path d="M89.84,165.87A6.75,6.75,0,1,1,85,157.63,6.75,6.75,0,0,1,89.84,165.87Z" style="opacity:0.2"></path><polygon points="352.7 162.57 257.53 257.64 127.59 222.82 125.22 213.96 220.39 118.85 350.33 153.71 352.7 162.57" style="fill:#37474f"></polygon><polygon points="220.39 118.85 222.76 127.71 352.7 162.57 350.33 153.71 220.39 118.85" style="fill:#fff;opacity:0.2"></polygon><polygon points="222.76 127.71 350.38 160.38 350.33 153.71 352.7 162.57 222.76 127.71" style="fill:#fff;opacity:0.2"></polygon><polygon points="257.53 257.64 127.6 222.82 222.76 127.71 352.7 162.57 257.53 257.64" style="fill:#455a64"></polygon><path d="M308.86,180.16c-2.75-9.82-11.93-17.89-27-21.92-30.33-8.14-72.92,3.26-95.13,25.46-10.91,10.9-14.85,22.37-12.47,32.2,0,.15.06.32.1.47l12.82,47.9c-2.66-9.93,1.25-21.62,12.36-32.73,22.21-22.2,64.79-33.59,95.12-25.45,15.17,4.07,24.39,12.25,27.05,22.18L309,180.43Z" style="fill:#37474f"></path><path d="M314.46,201.09c-2.75-9.82-11.93-17.89-27-21.92-30.33-8.14-72.92,3.26-95.13,25.46-10.9,10.9-14.85,22.37-12.46,32.19,0,.16.05.32.09.48l1.62,6c-2.66-9.93,1.25-21.62,12.35-32.72,22.21-22.2,64.8-33.6,95.13-25.46,15.17,4.07,24.39,12.25,27,22.18l-1.6-6Z" style="fill:#BA68C8"></path><path d="M207.53,207.9c-13.93,2.75-20.32-12.91-9.63-33.33a77.85,77.85,0,0,0-11.13,9.13c-10.91,10.9-14.85,22.37-12.47,32.2,0,.15.06.32.1.47l12.82,47.9c-2.66-9.93,1.25-21.62,12.36-32.73,22.21-22.2,64.79-33.59,95.12-25.45h0C258.75,193.61,226.1,204.24,207.53,207.9Z" style="opacity:0.2"></path><ellipse cx="254.49" cy="246.27" rx="69.63" ry="40.2" transform="translate(-55.02 74.17) rotate(-14.98)" style="fill:#263238"></ellipse><ellipse cx="254.49" cy="246.27" rx="66.96" ry="37.46" transform="translate(-55.02 74.17) rotate(-14.98)" style="fill:#37474f"></ellipse><path d="M250,272.57c-22-7.48-25-39.81-6.84-56.4l-30.61,8.2a75.65,75.65,0,0,0-10.69,8.56c-21.48,20.89-15.35,43.8,13.7,51.17,27.94,7.09,66.9-2.79,88.94-22.15C287.88,270.67,265,277.65,250,272.57Z" style="opacity:0.2"></path><path d="M201.9,232.93c-1.08,1-2.07,2.11-3,3.17,1.34.44,2.73.86,4.19,1.23,29,7.37,70-3.59,91.48-24.48,1.08-1,2.07-2.11,3-3.16-1.35-.45-2.73-.87-4.2-1.24C264.34,201.08,223.38,212,201.9,232.93Z"></path></g></g></svg>
